<?xml version="1.0" ?><svg viewBox="0 0 32 32" xmlns="http://www.w3.org/2000/svg"><title/><g data-name="Layer 2" id="Layer_2"><rect height="2" rx="1" ry="1" width="2" x="15" y="20"/><path d="M26.31,25H5.69A4.69,4.69,0,0,1,1,20.31V7.69A4.69,4.69,0,0,1,5.69,3H26.31A4.69,4.69,0,0,1,31,7.69V20.31A4.69,4.69,0,0,1,26.31,25ZM5.69,5A2.69,2.69,0,0,0,3,7.69V20.31A2.69,2.69,0,0,0,5.69,23H26.31A2.69,2.69,0,0,0,29,20.31V7.69A2.69,2.69,0,0,0,26.31,5Z"/><rect height="2" width="28" x="2" y="17"/><path d="M20.78,29H11.22l-1.5-6H22.28Zm-8-2h6.44l.5-2H12.28Z"/><rect height="2" rx="1" ry="1" width="14" x="9" y="27"/></g></svg>